<svg version="1.1" viewBox="0 0 362 86" xmlns="http://www.w3.org/2000/svg">
<path d="M0 0 C5.87964756 1.84339382 11.45936447 3.98357653 17.0234375 6.625 C18.54066948 7.33363315 20.05800768 8.04203891 21.57543945 8.75024414 C22.35843414 9.11763702 23.14142883 9.48502991 23.94815063 9.86355591 C61.69675514 27.54045798 99.28406219 41.07269603 140.3125 48.75 C141.09989563 48.89897736 141.88729126 49.04795471 142.69854736 49.20144653 C158.28996438 52.13050759 173.94629583 54.08449358 189.8125 54.625 C190.82054687 54.66149658 191.82859375 54.69799316 192.8671875 54.7355957 C195.91125589 54.83727102 198.95521656 54.9229105 202 55 C202.88993652 55.02336426 203.77987305 55.04672852 204.69677734 55.07080078 C252.94614878 56.15067199 308.74326452 51.23381571 353 31 C353.33 30.34 353.66 29.68 354 29 C356.31 29 358.62 29 361 29 C359.60327405 32.39683028 358.2130332 33.81604404 355.0625 35.6640625 C354.25949463 36.14117676 353.45648926 36.61829102 352.62915039 37.10986328 C351.76153076 37.6098584 350.89391113 38.10985352 350 38.625 C349.10079834 39.15206543 348.20159668 39.67913086 347.27514648 40.22216797 C344.52391642 41.82751542 341.76329551 43.41553006 339 45 C337.82848389 45.67869141 337.82848389 45.67869141 336.63330078 46.37109375 C277.45192561 80.58268599 214.63268516 93.51353639 147.89990234 75.96533203 C112.13077552 66.07633962 78.80731545 46.96466916 47.17016602 28.0324707 C38.39061119 22.78725435 29.51572425 17.73642663 20.57055664 12.77954102 C15.45199574 9.9422619 10.35046222 7.078072 5.27734375 4.16015625 C4.26792725 3.58015869 3.25851074 3.00016113 2.21850586 2.40258789 C1.48639893 1.93973389 0.75429199 1.47687988 0 1 C0 0.67 0 0.34 0 0 Z " fill="#0CC8F6" transform="translate(1,1)"/>
<path d="M0 0 C5.87964756 1.84339382 11.45936447 3.98357653 17.0234375 6.625 C18.54066948 7.33363315 20.05800768 8.04203891 21.57543945 8.75024414 C22.35843414 9.11763702 23.14142883 9.48502991 23.94815063 9.86355591 C47.81688408 21.04079727 71.83836578 31.06278343 97 39 C97 39.33 97 39.66 97 40 C87.26630243 40.99323445 77.86798243 36.62858172 69 33 C68.67 34.65 68.34 36.3 68 38 C68.66 38 69.32 38 70 38 C70 38.66 70 39.32 70 40 C65.74617591 38.71573793 62.18171248 37.09955042 58.38671875 34.796875 C57.31558838 34.15290771 56.24445801 33.50894043 55.14086914 32.84545898 C54.57820343 32.50392792 54.01553772 32.16239685 53.43582153 31.81051636 C50.4368436 29.99136291 47.4257911 28.19247321 44.4140625 26.39453125 C43.79876175 26.02695206 43.183461 25.65937286 42.54951477 25.28065491 C35.30632478 20.96861568 27.94817406 16.86741502 20.57495117 12.78222656 C15.45507908 9.94377745 10.35194918 7.07892725 5.27734375 4.16015625 C4.26792725 3.58015869 3.25851074 3.00016113 2.21850586 2.40258789 C1.48639893 1.93973389 0.75429199 1.47687988 0 1 C0 0.67 0 0.34 0 0 Z " fill="#18BBE6" transform="translate(1,1)"/>
<path d="M0 0 C2.81640625 0.13671875 2.81640625 0.13671875 6.5625 0.6875 C8.02201756 0.8888769 9.48166192 1.08933609 10.94140625 1.2890625 C11.74723145 1.40282227 12.55305664 1.51658203 13.38330078 1.63378906 C30.58695901 4.04146655 47.62869425 5.6433607 65 6 C66.32185303 6.03287109 66.32185303 6.03287109 67.67041016 6.06640625 C83.63343322 6.42627151 99.49513426 5.34051899 115.40869141 4.24365234 C120.10422238 3.92508403 124.80137475 3.64341899 129.5 3.375 C130.7890625 3.30023438 132.078125 3.22546875 133.40625 3.1484375 C134.2621875 3.09945312 135.118125 3.05046875 136 3 C135 5 135 5 131.89930725 6.0557251 C119.93096241 9.16908915 107.50486565 9.30430475 95.22265625 9.265625 C93.67524658 9.26697781 92.12783732 9.26892341 90.58042908 9.27142334 C87.3712043 9.27433954 84.16209233 9.27018766 80.95288086 9.26074219 C76.86247697 9.24928161 72.77233377 9.25597087 68.68193913 9.26788712 C65.49987349 9.27514368 62.31786887 9.27280158 59.13580132 9.26763153 C57.6276795 9.26630902 56.11955192 9.26789298 54.61143684 9.27259064 C46.81036724 9.29159055 39.57121692 9.03872771 32 7 C29.67140618 6.76072712 27.33726755 6.56704195 25 6.4375 C19.10306748 6.10306748 19.10306748 6.10306748 18 5 C15.58235747 4.6226119 13.17806712 4.29264839 10.75 4 C6.4669717 3.47184237 2.22114857 2.91621829 -2 2 C-1.34 1.34 -0.68 0.68 0 0 Z " fill="#1A9AC4" transform="translate(138,50)"/>
<path d="M0 0 C2.31 0 4.62 0 7 0 C5.58898085 3.46374688 4.13124849 4.86142329 0.921875 6.734375 C0.09679443 7.22268799 -0.72828613 7.71100098 -1.57836914 8.21411133 C-2.90082642 8.97437622 -2.90082642 8.97437622 -4.25 9.75 C-5.5946936 10.53636841 -5.5946936 10.53636841 -6.96655273 11.33862305 C-8.78159053 12.39800319 -10.59920923 13.45297436 -12.41943359 14.50341797 C-14.7369205 15.84742883 -17.03725003 17.21536891 -19.33203125 18.59765625 C-20.57518368 19.33650507 -21.81864884 20.0748281 -23.0625 20.8125 C-24.14660156 21.45832031 -25.23070312 22.10414062 -26.34765625 22.76953125 C-29 24 -29 24 -32 23 C-31.67 22.01 -31.34 21.02 -31 20 C-28.10441559 18.5522078 -26.25811062 18 -23 18 C-27.41029783 15.79050168 -31.48940324 15.7629352 -36.3125 15.875 C-37.42334961 15.88853516 -37.42334961 15.88853516 -38.55664062 15.90234375 C-40.37123467 15.92575787 -42.18566071 15.96162385 -44 16 C-40.94714953 14.3437234 -37.98413971 13.3465356 -34.6328125 12.44921875 C-33.58802734 12.16522217 -32.54324219 11.88122559 -31.46679688 11.58862305 C-30.36400391 11.29125244 -29.26121094 10.99388184 -28.125 10.6875 C-14.31797508 7.06020481 -14.31797508 7.06020481 -1 2 C-0.67 1.34 -0.34 0.68 0 0 Z " fill="#16C6F3" transform="translate(355,30)"/>
<path d="M0 0 C6.16377402 1.92568983 12.01358263 4.22154589 17.8671875 6.94140625 C18.66859161 7.30975082 19.46999573 7.6780954 20.29568481 8.05760193 C21.97224281 8.82937829 23.64776155 9.60341603 25.32226562 10.37963867 C27.88677144 11.56795454 30.45480653 12.74836581 33.0234375 13.92773438 C34.65906587 14.68183265 36.29449 15.43637413 37.9296875 16.19140625 C38.69529999 16.54352676 39.46091248 16.89564728 40.24972534 17.25843811 C43.32339372 18.68628931 46.17454286 20.1163619 49 22 C47.68 22 46.36 22 45 22 C45 22.66 45 23.32 45 24 C45.598125 24.268125 46.19625 24.53625 46.8125 24.8125 C48.97224808 25.98493467 50.35790256 27.19369282 52 29 C48.22186048 29 46.58335469 27.81508664 43.3203125 25.921875 C42.4786705 25.43729828 42.4786705 25.43729828 41.62002563 24.94293213 C39.78484447 23.8845604 37.95498667 22.81732369 36.125 21.75 C34.86528432 21.02148579 33.6051905 20.29362507 32.34472656 19.56640625 C29.79293914 18.09333565 27.24296496 16.61719979 24.69433594 15.13867188 C19.3943207 12.0666292 14.07192207 9.03387926 8.75 6 C7.03634403 5.02103339 5.32278995 4.04188839 3.609375 3.0625 C2.90780273 2.66160156 2.20623047 2.26070313 1.48339844 1.84765625 C0.99387695 1.56792969 0.50435547 1.28820312 0 1 C0 0.67 0 0.34 0 0 Z " fill="#22A0C8" transform="translate(1,1)"/>
<path d="M0 0 C5.61 1.98 11.22 3.96 17 6 C15.35 7.32 13.7 8.64 12 10 C12 10.99 12 11.98 12 13 C13.32 13 14.64 13 16 13 C16 13.66 16 14.32 16 15 C16.99 15 17.98 15 19 15 C19 15.66 19 16.32 19 17 C20.65 17.33 22.3 17.66 24 18 C24.33 18.99 24.66 19.98 25 21 C19.39523177 19.42195846 14.64949374 16.73583615 9.625 13.875 C8.79355469 13.40707031 7.96210937 12.93914063 7.10546875 12.45703125 C5.06765046 11.30929451 3.03264431 10.15686718 1 9 C1 8.01 1 7.02 1 6 C0.34 6 -0.32 6 -1 6 C-1.625 4.125 -1.625 4.125 -2 2 C-1.34 1.34 -0.68 0.68 0 0 Z " fill="#10C0EE" transform="translate(70,33)"/>
<path d="M0 0 C2.475 0.495 2.475 0.495 5 1 C5 1.66 5 2.32 5 3 C7.31 3.33 9.62 3.66 12 4 C12 4.66 12 5.32 12 6 C13.65 6.33 15.3 6.66 17 7 C17.33 8.65 17.66 10.3 18 12 C16.4375 12.75 16.4375 12.75 14 13 C11.40863267 12.00984873 9.1608989 10.74136267 7 9 C6.3125 6.875 6.3125 6.875 6 5 C4.0998823 3.75825204 4.0998823 3.75825204 2 3 C1.34 2.67 0.68 2.34 0 2 C0 1.34 0 0.68 0 0 Z " fill="#1BBDE5" transform="translate(46,23)"/>
<path d="M0 0 C2.81640625 0.13671875 2.81640625 0.13671875 6.5625 0.6875 C7.99069416 0.88808525 9.41909576 1.0871968 10.84765625 1.28515625 C11.64961426 1.39875488 12.45157227 1.51235352 13.27783203 1.62939453 C18.67643799 2.36437963 24.08952814 2.98447329 29.5 3.625 C31.69794317 3.88779926 33.89586192 4.15080288 36.09375 4.4140625 C37.72915998 4.60943101 39.36457395 4.80476612 41 5 C41 5.33 41 5.66 41 6 C37.35418313 6.02887512 33.70839537 6.04675585 30.0625 6.0625 C29.02158203 6.07087891 27.98066406 6.07925781 26.90820312 6.08789062 C25.42416992 6.09272461 25.42416992 6.09272461 23.91015625 6.09765625 C22.53549194 6.10551147 22.53549194 6.10551147 21.13305664 6.11352539 C19 6 19 6 18 5 C15.58235747 4.6226119 13.17806712 4.29264839 10.75 4 C6.4669717 3.47184237 2.22114857 2.91621829 -2 2 C-1.34 1.34 -0.68 0.68 0 0 Z " fill="#1997C2" transform="translate(138,50)"/>
<path d="M0 0 C2.31 0 4.62 0 7 0 C5.51081373 4.12666074 3.19156996 5.2973363 -0.625 7.25 C-1.62789063 7.77078125 -2.63078125 8.2915625 -3.6640625 8.828125 C-4.82035156 9.40820312 -4.82035156 9.40820312 -6 10 C-6 9.01 -6 8.02 -6 7 C-10.455 7.495 -10.455 7.495 -15 8 C-11.99422513 5.99615009 -9.15022736 4.73880258 -5.8125 3.375 C-4.72582031 2.92898437 -3.63914062 2.48296875 -2.51953125 2.0234375 C-1.68808594 1.68570312 -0.85664063 1.34796875 0 1 C0 0.67 0 0.34 0 0 Z " fill="#2197BC" transform="translate(355,30)"/>
<path d="M0 0 C-3.92616701 1.66564661 -7.89953148 2.83949004 -12 4 C-12.99 4.495 -12.99 4.495 -14 5 C-21.60987902 6.25030467 -29.31415357 6.10842103 -37 6 C-37 5.67 -37 5.34 -37 5 C-32.37550203 4.11644223 -27.74910325 3.24395199 -23.12060547 2.3815918 C-21.54679355 2.08676544 -19.97354068 1.7889382 -18.40087891 1.48803711 C-16.13845334 1.05570373 -13.87422775 0.63425105 -11.609375 0.21484375 C-10.90818542 0.07843979 -10.20699585 -0.05796417 -9.48455811 -0.19850159 C-6.05553969 -0.8226369 -3.31214731 -1.25133817 0 0 Z " fill="#1FA2CE" transform="translate(311,47)"/>
<path d="M0 0 C1.62490954 -0.02698189 3.24994633 -0.04638757 4.875 -0.0625 C5.77992188 -0.07410156 6.68484375 -0.08570313 7.6171875 -0.09765625 C10 0 10 0 12 1 C13.5107757 1.11805177 15.02638831 1.17696449 16.54150391 1.20532227 C17.48232819 1.22526749 18.42315247 1.24521271 19.39248657 1.26576233 C20.41023163 1.28247482 21.42797668 1.29918732 22.4765625 1.31640625 C23.51694672 1.33718735 24.55733093 1.35796844 25.62924194 1.37937927 C28.96109249 1.44489872 32.2930235 1.50377092 35.625 1.5625 C37.88021674 1.60568294 40.13542527 1.64929715 42.390625 1.69335938 C47.92699764 1.80058252 53.46345078 1.90234446 59 2 C59 2.33 59 2.66 59 3 C52.04405871 3.0509432 45.08816601 3.08583535 38.13208008 3.10986328 C35.76845502 3.11988618 33.40484225 3.13350806 31.04125977 3.15087891 C27.63294429 3.17529069 24.22479357 3.18652054 20.81640625 3.1953125 C19.76916885 3.20563507 18.72193146 3.21595764 17.64295959 3.22659302 C11.44419823 3.22752908 6.000129 2.57568131 0 1 C0 0.67 0 0.34 0 0 Z " fill="#23BDEC" transform="translate(170,56)"/>
<path d="M0 0 C6.75 -0.125 6.75 -0.125 9 1 C10.70363822 1.22622081 12.41328701 1.40888473 14.125 1.5625 C15.03507813 1.64628906 15.94515625 1.73007813 16.8828125 1.81640625 C17.58148438 1.87699219 18.28015625 1.93757813 19 2 C19 2.66 19 3.32 19 4 C20.17369141 4.18175781 20.17369141 4.18175781 21.37109375 4.3671875 C22.38300781 4.53476563 23.39492187 4.70234375 24.4375 4.875 C25.95150391 5.11863281 25.95150391 5.11863281 27.49609375 5.3671875 C28.32238281 5.57601562 29.14867187 5.78484375 30 6 C30.33 6.66 30.66 7.32 31 8 C23.85944731 7.41664564 17.31745142 5.89994809 10.4375 3.9375 C8.92446289 3.51500977 8.92446289 3.51500977 7.38085938 3.08398438 C4.91875452 2.39552851 2.45862184 1.70077279 0 1 C0 0.67 0 0.34 0 0 Z " fill="#1CA4CF" transform="translate(143,74)"/>
<path d="M0 0 C1.60568666 0.28317926 3.20952047 0.57687791 4.8125 0.875 C6.15248047 1.11863281 6.15248047 1.11863281 7.51953125 1.3671875 C10 2 10 2 13 4 C11.68 4 10.36 4 9 4 C9 4.66 9 5.32 9 6 C9.598125 6.268125 10.19625 6.53625 10.8125 6.8125 C12.97224808 7.98493467 14.35790256 9.19369282 16 11 C12.13105762 11 10.21903623 9.66778463 6.875 7.75 C5.79992188 7.14671875 4.72484375 6.5434375 3.6171875 5.921875 C1 4 1 4 0.1328125 1.765625 C0.08898438 1.18296875 0.04515625 0.6003125 0 0 Z " fill="#22A3CC" transform="translate(37,19)"/>
<path d="M0 0 C6.93 0.495 6.93 0.495 14 1 C14 1.33 14 1.66 14 2 C8.56731506 3.13606798 3.30933397 3.12824385 -2.2109375 3.09765625 C-3.17907379 3.0962413 -4.14721008 3.09482635 -5.14468384 3.09336853 C-8.22148799 3.08779365 -11.29821803 3.07524577 -14.375 3.0625 C-16.46744686 3.05748175 -18.55989487 3.05291941 -20.65234375 3.04882812 C-25.7682575 3.03783245 -30.88411621 3.02058515 -36 3 C-36 2.67 -36 2.34 -36 2 C-24.12 2 -12.24 2 0 2 C0 1.34 0 0.68 0 0 Z " fill="#1BB9E5" transform="translate(230,81)"/>
<path d="M0 0 C1.98 0 3.96 0 6 0 C2.27786135 2.48142577 -1.46524621 3.65963314 -5.6875 5.0625 C-6.46544922 5.33126953 -7.24339844 5.60003906 -8.04492188 5.87695312 C-13.0527414 7.55179518 -17.74065318 8.51313475 -23 9 C-22.01 8.67 -21.02 8.34 -20 8 C-20 7.34 -20 6.68 -20 6 C-13.93775593 2.67554357 -6.86061613 1.63891494 0 2 C0 1.34 0 0.68 0 0 Z " fill="#20B2DC" transform="translate(282,70)"/>
<path d="M0 0 C-1.62760417 0.68359375 -3.25520833 1.3671875 -4.8828125 2.05078125 C-7.14161117 3.02111954 -7.14161117 3.02111954 -9.71875 4.5625 C-13.71694279 6.31408922 -17.06229859 6.55102211 -21.375 6.6875 C-22.11105469 6.72166016 -22.84710938 6.75582031 -23.60546875 6.79101562 C-25.40313853 6.87272789 -27.20154046 6.93805781 -29 7 C-24.38199721 4.54153793 -19.50744589 3.25630224 -14.5 1.8125 C-13.07494141 1.38420898 -13.07494141 1.38420898 -11.62109375 0.94726562 C-10.70457031 0.68236328 -9.78804688 0.41746094 -8.84375 0.14453125 C-8.01037109 -0.09934326 -7.17699219 -0.34321777 -6.31835938 -0.59448242 C-3.84893677 -1.02642334 -2.35426303 -0.79276895 0 0 Z " fill="#1D9BC5" transform="translate(340,39)"/>
<path d="M0 0 C8.69651012 2.57132391 17.347852 5.28412724 26 8 C26 8.33 26 8.66 26 9 C20.3058041 9.5810404 15.64762719 8.4814845 10.25 6.6875 C9.60023193 6.47456299 8.95046387 6.26162598 8.28100586 6.04223633 C4.7289138 4.81049577 1.85532209 3.45874958 -1 1 C-0.67 0.67 -0.34 0.34 0 0 Z " fill="#169AC6" transform="translate(72,32)"/>
<path d="M0 0 C5.625 -0.25 5.625 -0.25 9 2 C10.63156399 2.5447626 12.27968284 3.0412957 13.9375 3.5 C20.17685121 5.23158465 20.17685121 5.23158465 23 7 C23.33 7.99 23.66 8.98 24 10 C15.63019764 7.80148049 7.88172441 4.50929804 0 1 C0 0.67 0 0.34 0 0 Z " fill="#1DABD4" transform="translate(109,61)"/>
<path d="M0 0 C-0.16015625 1.765625 -0.16015625 1.765625 -1 4 C-3.43359375 5.921875 -3.43359375 5.921875 -6.4375 7.75 C-7.42621094 8.36359375 -8.41492188 8.9771875 -9.43359375 9.609375 C-12 11 -12 11 -14 11 C-14 10.01 -14 9.02 -14 8 C-10.77208445 5.8480563 -9.71599191 5.79913557 -6 6 C-6 5.01 -6 4.02 -6 3 C-6.99 2.67 -7.98 2.34 -9 2 C-5.86501708 0.14223235 -3.62528568 -0.20140476 0 0 Z " fill="#22B1D8" transform="translate(349,37)"/>
<path d="M0 0 C1.98 0 3.96 0 6 0 C2.44283087 2.96430761 -1.45050932 4.7721925 -5.625 6.6875 C-6.305625 7.00783203 -6.98625 7.32816406 -7.6875 7.65820312 C-12.74058835 10 -12.74058835 10 -15 10 C-15 9.34 -15 8.68 -15 8 C-14.01 8 -13.02 8 -12 8 C-12 7.34 -12 6.68 -12 6 C-10.68 6 -9.36 6 -8 6 C-8 5.34 -8 4.68 -8 4 C-4.91190305 2.23537317 -3.76687864 2 0 2 C0 1.34 0 0.68 0 0 Z " fill="#1FA9D2" transform="translate(318,54)"/>
<path d="M0 0 C7.18216433 2.27435204 14.0758202 5.03584181 21 8 C21 8.33 21 8.66 21 9 C17.625 9.125 17.625 9.125 14 9 C13.34 8.34 12.68 7.68 12 7 C9.93125966 6.3574765 9.93125966 6.3574765 8 6 C8 5.34 8 4.68 8 4 C5.69 3.67 3.38 3.34 1 3 C0.67 2.01 0.34 1.02 0 0 Z " fill="#1AA0CC" transform="translate(50,23)"/>
<path d="M0 0 C6.93998648 2.16163513 13.43117569 4.8936214 20 8 C18.24316406 9.11083984 18.24316406 9.11083984 16 10 C14.07714844 9.40087891 14.07714844 9.40087891 12.109375 8.2265625 C11.40039062 7.8140625 10.69140625 7.4015625 9.9609375 6.9765625 C9.23132812 6.53054687 8.50171875 6.08453125 7.75 5.625 C7.00492188 5.18671875 6.25984375 4.7484375 5.4921875 4.296875 C3.65295875 3.21220164 1.82531676 2.10792483 0 1 C0 0.67 0 0.34 0 0 Z " fill="#2B91B4" transform="translate(1,1)"/>
<path d="M0 0 C7.76783437 0.79263616 15.3629639 2.41889487 23 4 C23 4.33 23 4.66 23 5 C5.86423241 5.5765305 5.86423241 5.5765305 1.25 1.42578125 C0.8375 0.95527344 0.425 0.48476563 0 0 Z " fill="#179CC7" transform="translate(114,45)"/>
<path d="M0 0 C2.64 0.33 5.28 0.66 8 1 C8 1.66 8 2.32 8 3 C8.99 3 9.98 3 11 3 C11 3.66 11 4.32 11 5 C12.65 5.33 14.3 5.66 16 6 C16.33 6.99 16.66 7.98 17 9 C10.83643195 7.3341708 5.51740344 4.12194714 0 1 C0 0.67 0 0.34 0 0 Z " fill="#17ADD2" transform="translate(78,45)"/>
<path d="M0 0 C-3.01887244 3.48331435 -5.56909529 4.79157144 -10 6 C-10.33 5.34 -10.66 4.68 -11 4 C-10 2 -10 2 -7.75 0.875 C-4.98386705 -0.00513321 -2.87951649 -0.1645438 0 0 Z " fill="#24B1D8" transform="translate(334,48)"/>
<path d="M0 0 C5.13503344 0.64187918 9.9943454 1.68272247 15 3 C15 3.33 15 3.66 15 4 C4.44191344 4.3690205 4.44191344 4.3690205 0 2 C0 1.34 0 0.68 0 0 Z " fill="#1C9AC4" transform="translate(98,41)"/>
<path d="M0 0 C2.475 0.495 2.475 0.495 5 1 C5 1.66 5 2.32 5 3 C7.31 3.33 9.62 3.66 12 4 C12 4.66 12 5.32 12 6 C6.73628638 6.50130606 4.0909066 5.31168629 0 2 C0 1.34 0 0.68 0 0 Z " fill="#1BC4F1" transform="translate(46,23)"/>
<path d="M0 0 C1.43655854 -0.08131463 2.8744483 -0.13933559 4.3125 -0.1875 C5.51326172 -0.23970703 5.51326172 -0.23970703 6.73828125 -0.29296875 C9.47851584 0.06198392 10.29171079 0.89366282 12 3 C10.56260487 3.02712066 9.12506137 3.04645067 7.6875 3.0625 C6.48673828 3.07990234 6.48673828 3.07990234 5.26171875 3.09765625 C3 3 3 3 0 2 C0 1.34 0 0.68 0 0 Z " fill="#1CC4F2" transform="translate(105,45)"/>
<path d="M0 0 C2.97 0.33 5.94 0.66 9 1 C9.33 2.32 9.66 3.64 10 5 C6.08788267 3.84414715 3.1254959 2.64465038 0 0 Z " fill="#24B1D9" transform="translate(99,56)"/>
<path d="M0 0 C0 0.66 0 1.32 0 2 C-2.90548882 4.04169485 -4.40142046 5 -8 5 C-8 4.01 -8 3.02 -8 2 C-5.09399739 0.74335022 -3.20395416 0 0 0 Z " fill="#37BFE1" transform="translate(358,33)"/>
<path d="M0 0 C3.3 0 6.6 0 10 0 C10.33 0.99 10.66 1.98 11 3 C9.54077307 2.88590407 8.08259402 2.75834456 6.625 2.625 C5.40683594 2.52058594 5.40683594 2.52058594 4.1640625 2.4140625 C2 2 2 2 0 0 Z " fill="#1BC1ED" transform="translate(95,54)"/>
<path d="M0 0 C-0.375 1.9375 -0.375 1.9375 -1 4 C-1.99 4.495 -1.99 4.495 -3 5 C-3.66 4.67 -4.32 4.34 -5 4 C-5 3.34 -5 2.68 -5 2 C-5.66 1.67 -6.32 1.34 -7 1 C-4.53721199 -0.231394 -2.7204945 -0.07159196 0 0 Z " fill="#29C5EC" transform="translate(349,37)"/>
<path d="M0 0 C4.37934119 0.51958285 8.68803391 1.05675742 13 2 C13 2.33 13 2.66 13 3 C11.39667209 3.08121924 9.79215974 3.13929134 8.1875 3.1875 C7.29417969 3.22230469 6.40085937 3.25710937 5.48046875 3.29296875 C2.58352485 2.95081002 1.77444972 2.24606427 0 0 Z " fill="#148BB7" transform="translate(114,45)"/>
<path d="M0 0 C1.46067199 0.45082469 2.91848032 0.91093537 4.375 1.375 C5.18710938 1.63023438 5.99921875 1.88546875 6.8359375 2.1484375 C9 3 9 3 11 5 C5.95749572 5 4.22094347 3.59750368 0 1 C0 0.67 0 0.34 0 0 Z " fill="#2A7B9B" transform="translate(1,1)"/>
<path d="M0 0 C2.97 0.495 2.97 0.495 6 1 C5.67 2.32 5.34 3.64 5 5 C3.68 4.67 2.36 4.34 1 4 C0.67 2.68 0.34 1.36 0 0 Z " fill="#29BFE8" transform="translate(37,19)"/>
<path d="" fill="#307897" transform="translate(0,0)"/>
</svg>